<?xml version="1.0" encoding="UTF-8" standalone="no"?>
<!-- Created with Inkscape (http://www.inkscape.org/) -->

<svg
   width="101.02332"
   height="101.02319"
   viewBox="0 0 101.02332 101.0232"
   version="1.1"
   id="svg1"
   xml:space="preserve"
   xmlns="http://www.w3.org/2000/svg"
   xmlns:svg="http://www.w3.org/2000/svg"><defs
     id="defs1" /><g
     id="layer2"
     transform="translate(-1888.7951,-1064.8185)"><path
       id="path32"
       style="fill:#1e1e1e;fill-opacity:1;stroke:#c864c8;stroke-width:1;stroke-linejoin:bevel;stroke-dasharray:none;stroke-opacity:1"
       d="m 1952.2477,1067.0338 a 50,50 45 0 0 -61.2373,35.3553 50,50 45 0 0 35.3553,61.2373 50,50 45 0 0 61.2373,-35.3553 50,50 45 0 0 -35.3553,-61.2373 z m -2.8183,10.5177 a 9.1328049,9.1328049 0 0 1 6.4579,11.1853 9.1328049,9.1328049 0 0 1 -11.1853,6.4579 9.1328049,9.1328049 0 0 1 -6.4579,-11.1853 9.1328049,9.1328049 0 0 1 11.1853,-6.4579 z m -37.9065,20.879 a 9.1328049,9.1328049 0 0 1 6.458,11.1854 9.1328049,9.1328049 0 0 1 -11.1855,6.4578 9.1328049,9.1328049 0 0 1 -6.4578,-11.1853 9.1328049,9.1328049 0 0 1 11.1853,-6.4579 z m 30.1475,8.078 a 9.1328049,9.1328049 0 0 1 6.4579,11.1853 9.1328049,9.1328049 0 0 1 -11.1853,6.4579 9.1328049,9.1328049 0 0 1 -6.4579,-11.1853 9.1328049,9.1328049 0 0 1 11.1853,-6.4579 z m 30.1494,8.0785 a 9.1328049,9.1328049 0 0 1 6.4579,11.1853 9.1328049,9.1328049 0 0 1 -11.1854,6.4579 9.1328049,9.1328049 0 0 1 -6.4579,-11.1853 9.1328049,9.1328049 0 0 1 11.1854,-6.4579 z m -37.9079,20.8767 a 9.1328049,9.1328049 0 0 1 6.4579,11.1853 9.1328049,9.1328049 0 0 1 -11.1854,6.4579 9.1328049,9.1328049 0 0 1 -6.4578,-11.1854 9.1328049,9.1328049 0 0 1 11.1853,-6.4578 z" /></g></svg>
